<?xml version="1.0" encoding="UTF-8"?>
<svg viewBox="0 0 2602.39 1762.09" xmlns="http://www.w3.org/2000/svg">

	<g id="terrain-layer">
		<polygon id="lt-1" class="lote" points="1643.1 1098.2 1639.6 1198.7 1595.5 1196.4 1600.4 1096.1 1617.9 1097"/>
		<polygon id="lt-2" class="lote" points="1546.5 1046.4 1554.8 1084.5 1454.6 1107.6 1445.8 1068.2"/>
		<path transform="translate(-2.27 14.61)" d="m1602.7 1081.5l-5 100.25-75.16-4h-0.54a83.75 83.75 0 0 1 -11.72 -1.11l59.11-97.94 1.74 1.26z"/>
		<path transform="translate(-2.27 14.61)" d="m1569.4 1078.7l-59.12 97.94c-21.06-3.51-34.86-15.29-43-36.37l-10.5-47.33 100.24-23.1z"/>
		<path transform="translate(-2.27 14.61)" d="m1533.8 963.54l15 68.27-100.63 21.73-11.36-51.18c34.57-8.52 67.35-22.84 97-38.82"/>
		<polygon id="lt-3" class="lote" points="1687.2 1100.4 1681.4 1200.9 1639.6 1198.7 1643.1 1098.2"/>
		<polygon id="lt-4" class="lote" points="1727 1102.3 1722.3 1203.1 1681.4 1200.9 1687.2 1100.4 1713.8 1101.7"/>
		<polygon id="lt-5" class="lote" points="1684.1 1244.6 1678.8 1348.1 1637.6 1345.7 1643.4 1242.5"/>
		<polygon id="lt-6" class="lote" points="1723.8 1246.7 1718.3 1350.4 1678.8 1348.1 1684.1 1244.6"/>
		<path transform="translate(-2.27 14.61)" d="m1510 1220.5l-15.12 104.61-64.23-10 49.08-102.12a108.49 108.49 0 0 0 30.27 7.56"/>
		<path transform="translate(-2.27 14.61)" d="m1452.8 1195.7l-73.08 79.94-23.42-34.44-12.6-18.54 90.57-50.71a97.33 97.33 0 0 0 18.52 23.76"/>
		<path transform="translate(-2.27 14.61)" d="m1479.7 1212.9l-49.08 102.12-27-4.22-15.22-22.41-8.7-12.8 73.08-79.93a90.07 90.07 0 0 0 26.88 17.23"/>
		<polygon class="lote" points="1585.4 1239.4 1585.3 1241.6 1580.1 1343.8 1539.4 1341.9 1545.2 1237.3"/>
		<path transform="translate(-2.27 14.61)" d="M1547.48,1222.65l-5.84,104.67-46.81-2.21,15.12-104.61q5.17.56,10.57.72Z"/>
		<polygon class="lote" points="1626.1 1241.6 1620.5 1345.7 1580.1 1343.8 1585.3 1241.6 1585.4 1239.4"/>
		<path transform="translate(-2.27 14.61)" d="m1394.1 1010.8l11.74 53-101.14 20.64-2-9.57-13.29-63a434.85 434.85 0 0 0 50.43 3 360.3 360.3 0 0 0 54.27 -4"/>
		<path transform="translate(-2.27 14.61)" d="m1434.3 1172l-90.57 50.72-14.36-21.12-8-38.12 101.88-21.28 2.31 10.44 0.51 1.36a122 122 0 0 0 8.25 18"/>
		<polygon class="lote" points="1412 1116.4 1420.9 1156.8 1319 1178 1317.3 1169.6 1317.3 1169.6 1310.6 1138.1"/>
		<polygon class="lote" points="1403.5 1078.3 1412 1116.4 1310.6 1138.1 1308.7 1129.1 1302.4 1099"/>
		<path transform="translate(-2.27 14.61)" d="M1456.16,947.49l1.14,3.17a281.15,281.15,0,0,1-50.12,13.46l-1.14.22q-6.59,1.46-13.36,2.61l-.48-2.77L1374,858l41.66-10.86Z"/>
		<path transform="translate(-2.27 14.61)" d="m1515.4 919.57l1.29 3.73a431.51 431.51 0 0 1 -59.4 27.35l-1.14-3.16-40.49-100.38 42.83-19.65z"/>
		<path transform="translate(-2.27 14.61)" d="M1329.42,861.49,1326.5,970l0,1a442.73,442.73,0,0,1-65.05-7.48l.54-2.9,24.65-104.43Z"/>
		<path transform="translate(-2.27 14.61)" d="m958.64 789.33l-4.11 106.79v3.45q-25.47-0.32-52.07 1.08l-0.1-2.19-4.7-109.12z"/>
		<path transform="translate(-2.27 14.61)" d="M1392.2,964.17l.48,2.78a319.81,319.81,0,0,1-66.21,4.08l0-1,2.93-108.54L1374,858Z"/>
		<path transform="translate(-2.27 14.61)" d="M1237.32,842.13l49.27,14.09L1262,960.65l-.54,2.89a654.21,654.21,0,0,1-81-21q-12.33-5-24.95-9.45l1.47-4.16,28.15-104.43Z"/>
		<path transform="translate(-2.27 14.61)" d="m1127.6 811l-20.54 104.13-0.81 3.14q-24.86-6.25-50.83-10.41l17.58-109.73z"/>
		<path transform="translate(-2.27 14.61)" d="m1073 798.13l-17.61 109.71q-24.77-4-50.66-6.06l0.27-2.78 10-105.6z"/>
		<path transform="translate(-2.27 14.61)" d="M1185.09,824.53,1156.94,929l-1.47,4.15q-24.08-8.5-49.22-14.82l.81-3.14L1127.6,811Z"/>
		<path transform="translate(-2.27 14.61)" d="M902.31,898.45l.1,2.19c-6,.3-12.12.69-18.24,1.13l-1.05.08-1,.17q-15.32,2.59-30.93,4.26l-.48-4.34-5.28-112.6h52.22Z"/>
		<path transform="translate(-2.27 14.61)" d="M1015,793.44,1005,899l-.22,2.79q-24.62-2-50.28-2.27l0-3.45,4.11-106.79Z"/>
		<path transform="translate(-2.27 14.61)" d="m1040.4 949.6l-13.74 71.79-6.27 32.8-51.2 1.92 6.48-112.49a627.63 627.63 0 0 1 64.73 6"/>
		<path transform="translate(-2.27 14.61)" d="m975.63 943.63l-6.48 112.49-50.22 1.88v-114.53q29.14-1 56.75 0.16"/>
		<path transform="translate(-2.27 14.61)" d="m918.93 1058l-52.52 2-0.71-111.6c7.58-0.93 15.1-2 22.59-3.29q15.5-1.1 30.58-1.6z"/>
		<path transform="translate(-2.27 14.61)" d="m813.9 952.42l-0.63 109.58-59.9 0.45-0.36-111a600.21 600.21 0 0 0 60.89 1.06"/>
		<path transform="translate(-2.27 14.61)" d="M865.71,948.37l.7,111.6-53.14,2,.63-109.53h0q26.21-.86,51.81-4.07Z"/>
		<path transform="translate(-2.27 14.61)" d="M693.33,944.59l-1.22,111.89-53.16-5.4.46-112.55,46.68,4.86c2.42.4,4.82.81,7.23,1.2"/>
		<polygon points="637.15 953.15 636.69 1065.7 584.11 1060.4 583.68 947.58"/>
		<polygon points="583.68 947.58 584.11 1060.4 532.14 1055.1 532.02 942.2"/>
		<path transform="translate(-2.27 14.61)" d="M753,951.37l.36,111-61.26-5.94,1.21-111.89q30.06,4.79,59.69,6.77Z"/>
		<polygon points="532.02 942.2 532.14 1055.1 479.52 1055.1 479.89 942.5 530.02 941.99"/>
		<polygon points="479.89 942.5 479.52 1055.1 426.63 1055.1 426.63 943.02"/>
		<polygon points="426.63 943.02 426.63 1055.1 349 1055.1 347.71 943.82"/>
		<polygon points="655.56 677.78 656.07 730.67 543.9 732.23 543.61 679.58"/>
		<path transform="translate(-2.27 14.61)" d="M662.82,624.72l-5,38.45L545.88,665l-.18-32.7A222.51,222.51,0,0,1,554,582.58Z"/>
		<polygon points="657.06 834.03 657.81 911.6 544.83 899.79 544.47 835.58 544.48 835.58"/>
		<polygon points="656.56 782.15 657.06 834.03 544.48 835.58 544.47 835.58 544.18 784.08"/>
		<polygon points="656.07 730.67 656.56 782.15 544.18 784.08 543.9 732.23"/>
		<polygon points="500.38 730.05 500.68 782.72 353.71 783.87 353.5 730.83"/>
		<path transform="translate(-2.27 14.61)" d="m354.95 518l157.85 50.93a248.67 248.67 0 0 0 -9.14 45l-148.35-13z"/>
		<path transform="translate(-2.27 14.61)" d="M503.64,613.87h0c-.63,5.42-1.1,10.92-1.42,16.55l0,.69.18,33.21H355.55l-.26-63.42Z"/>
		<polygon points="500.97 835.01 501.33 898.77 354.19 900.24 353.92 835.77"/>
		<polygon points="500.68 782.72 500.97 835.01 353.92 835.77 353.71 783.87"/>
		<polygon points="500.1 678.93 500.38 730.05 353.5 730.83 353.28 678.93 353.29 678.93"/>
		<path transform="translate(-2.27 14.61)" d="M354.53,414.45,532.82,523.89a195,195,0,0,0-20,45L354.95,518Z"/>
		<path transform="translate(-2.27 14.61)" d="M2208.66,368l-68.49,103.5a45.76,45.76,0,0,0-39.31-27.31l4.4-107.3,39.65,1.28Z"/>
		<path transform="translate(-2.27 14.61)" d="m2171.2 822.13l2 83.19q-30.89 2.14-64.11 1.93l-2.77-100 64.29-8.73z"/>
		<path transform="translate(-2.27 14.61)" d="M2439.51,684.27l-.06,77.76-107.07-.58c.07-2.16.14-4.37.21-6.62a230.41,230.41,0,0,0-4.45-52.77Z"/>
		<path transform="translate(-2.27 14.61)" d="m2439.2 1030.9l-0.12 132.54h-64.14l-68.67-113.34a45.62 45.62 0 0 0 22.08 -34.1z"/>
		<path transform="translate(-2.27 14.61)" d="m2270.1 664.65l-95.83 39.23-52.36-27.57 86.57-82.45c23.34 24.29 48.55 51.27 54.42 57.55a136.34 136.34 0 0 1 7.23 13.24"/>
		<path transform="translate(-2.27 14.61)" d="M2171.9,822.12l115-1.59c-.75,24.93-1.09,44.73-.74,72.4l-10.92.09A112.44,112.44,0,0,0,2255,895a684.5,684.5,0,0,1-81.84,10.36l-2-83.19Z"/>
		<path transform="translate(-2.27 14.61)" d="M2276.21,946.51c2.94,8.24-4.52,18.39-14.64,23.75a45.75,45.75,0,0,0-24.33,43.12,46.44,46.44,0,0,0,.78,6.18l-110.73,27.21-5-93.47,0-.42c47.27-1.74,94-7.75,140.42-13.24,9.57-1.14,10.59-1.38,13.55,6.87"/>
		<path transform="translate(-2.27 14.61)" d="m2208.4 593.85l-86.57 82.46-60.48-31.83 100.13-95.56a117.78 117.78 0 0 1 11.79 9.46c8.1 7.62 21.28 21.08 35.13 35.47"/>
		<path transform="translate(-2.27 14.61)" d="m2046.1 796.44l1.64 0.3-11.93 107.53q-16.36-1.19-33.3-2.86c-12.64-1.24-25.77-2.86-38.4-5.9l24.39-108.85z"/>
		<path transform="translate(-2.27 14.61)" d="m2106.3 807.24l2.77 100q-35.19-0.18-73.24-3l11.93-107.54z"/>
		<path transform="translate(-2.27 14.61)" d="M2439.45,762l-.06,63.87-109.09-.33c.27-9.81.63-20.35,1-32.51.33-9.45.68-19.85,1.05-31.62Z"/>
		<path transform="translate(-2.27 14.61)" d="M2175.24,756.84l113.74.24c-.41,13-.78,24.32-1.12,34.51-.36,10.67-.69,20.13-.95,28.93l-115,1.59-.72,0-.57-23.62Z"/>
		<path transform="translate(-2.27 14.61)" d="M2105.25,336.91l-4.4,107.3a46.82,46.82,0,0,0-6.32.08,45.67,45.67,0,0,0-30,14.8l-84.7-73.59,68.92-50.4Z"/>
		<path transform="translate(-2.27 14.61)" d="m1979.8 385.5l84.7 73.59a45.59 45.59 0 0 0 -11.49 37.45l-112.82 19.6v-73z"/>
		<path transform="translate(-2.27 14.61)" d="m2161.5 548.91l-100.12 95.57-61-32.1 84-78.9a46 46 0 0 0 23.84 1.08 57.94 57.94 0 0 1 44.07 8.07c3.27 2.13 6.38 4.23 9.24 6.28"/>
		<path transform="translate(-2.27 14.61)" d="M2270.06,664.65a193,193,0,0,1,19.05,88.82c0,1.22-.07,2.43-.12,3.62l-113.75-.24-1-53L2270,664.65Z"/>
		<path transform="translate(-2.27 14.61)" d="M2424.57,591.61l-114.18,56.51a163.79,163.79,0,0,0-12.54-22.62l-.89-1.26-1-1.12c-.92-1-8.56-9.18-19.3-20.59l82.48-78.69Z"/>
		<path transform="translate(-2.27 14.61)" d="m2084.3 533.47l-84 78.9-2-1.08-38.07-39.09-20.05-56.06 112.78-19.6a45.78 45.78 0 0 0 31.34 36.93"/>
		<path transform="translate(-2.27 14.61)" d="m2314.6 477.73l-82.71 77.81c-11.31-11.7-21.72-22.21-28.79-28.86a162 162 0 0 0 -16.51 -13.28l77.83-87.66z"/>
		<path transform="translate(-2.27 14.61)" d="m2264.7 1052.7l-42.27 102.57-39.51-17.8-54.52-69.44-1.14-21.22 110.71-27.21a46.06 46.06 0 0 0 26.7 33.1"/>
		<path transform="translate(-2.27 14.61)" d="M2439.39,825.9l-.06,64.74-109.67,0c-.3-24.55,0-42.93.63-65.05Z"/>
		<path transform="translate(-2.27 14.61)" d="m2439.3 890.64l-0.06 64.44h-111.07c2.71-17.91 1.8-40.77 1.53-59.26 0-1.78 0-3.53-0.06-5.24z"/>
		<path transform="translate(-2.27 14.61)" d="m2306.3 1050.1l68.67 113.34h-134.39l-18.09-8.16 42.27-102.57a44.55 44.55 0 0 0 15.19 3.7 45.51 45.51 0 0 0 26.34 -6.32"/>
		<path transform="translate(-2.27 14.61)" d="M2424.57,591.61l15,15.56-.08,77.1-111.37,17.79a236.42,236.42,0,0,0-17.75-53.94Z"/>
		<path transform="translate(-2.27 14.61)" d="m2359.1 523.83l-82.49 78.69c-12.62-13.43-29.51-31.26-44.75-47l82.71-77.81z"/>
		<path transform="translate(-2.27 14.61)" d="M2439.27,955.08l-.08,75.78L2328.36,1016h0a43,43,0,0,0,.32-5.23c0-5.07-1.41-9.8-2.36-14.51-2.32-11.46-1.92-22,.92-35.58.38-1.77.7-3.61,1-5.52Z"/>
		<path transform="translate(-2.27 14.61)" d="M2264.42,425.76l-77.84,87.66c-7.14-5.11-15.06-10.23-23.05-15.09a59,59,0,0,1-23.35-26.81L2208.66,368Z"/>
		<polygon  points="2054 1109.9 2045.8 1149.5 1943 1128.3 1951.6 1088.5"/>
		<path transform="translate(-2.27 14.61)" d="m2027.1 1235.7l-54.57 59.09-67.47-78.89a81.3 81.3 0 0 0 21 -26z"/>
		<polygon  points="2070.3 1031.7 2062.2 1070.6 1959.9 1050 1968.7 1009.4"/>
		<polygon  points="2062.2 1070.6 2054 1109.9 1951.6 1088.5 1959.9 1050"/>
		<path transform="translate(-2.27 14.61)" d="m2039.9 1174.3l-12.74 61.35-101.05-45.75c6.18-11.9 9.6-24.85 11.28-37.47z"/>
		<path transform="translate(-2.27 14.61)" d="M2085.77,953.29v0l-13.23,63.75-101.61-22.3,11.18-51.87c5.46.71,10.93.83,16.18,1.83a507,507,0,0,0,87.48,8.58"/>
		<path transform="translate(-2.27 14.61)" d="m2048.1 1134.9l-8.21 39.47-102.49-21.87q0.32-2.23 0.54-4.46l7.4-34.3z"/>
		<path transform="translate(-2.27 14.61)" d="M1876.19,1231.26l38.31,97.19-44.71,16.08-21.54-1.26L1846,1237a130.1,130.1,0,0,0,30.17-5.72"/>
		<polygon  points="1764.8 1248.9 1759.6 1352.8 1759.6 1352.8 1718.3 1350.4 1723.8 1246.7"/>
		<polygon  points="1804.2 1251 1799 1355.2 1759.6 1352.8 1759.6 1352.8 1764.8 1248.9"/>
		<path transform="translate(-2.27 14.61)" d="m1905.1 1215.9l67.47 78.89-33 23.8-25.05 9.87-38.31-97.19a88.56 88.56 0 0 0 28.9 -15.37"/>
		<path transform="translate(-2.27 14.61)" d="M1846,1237l2.22,106.29-47-2.73,5.28-104.15,12.3.66c4.65.29,9.12.44,13.44.44,4.8,0,9.39-.18,13.77-.51"/>
		<polygon  points="1767 1104.3 1762.2 1205.2 1722.3 1203.1 1727 1102.3"/>
		<path transform="translate(-2.27 14.61)" d="m1801.4 1091.2l22.53 102.52-2.44-0.13-57-3 4.86-100.93z"/>
		<path transform="translate(-2.27 14.61)" d="m1900.6 1114.5l-5.49 25.5-0.27 1.26-0.14 1.28c-2.68 28.36-13.17 54.1-70.83 51.18l-22.53-102.53z"/>
		<path transform="translate(-2.27 14.61)" d="m1939.6 933.79l-11.64 54-100-22.61 2.52-11.92 10.81-51.37c28.68 6.77 57.08 15.92 88.08 28.2 3.41 1.35 6.83 2.55 10.25 3.66"/>
		<polygon  points="1925.6 1002.4 1916.8 1043.6 1817 1020.6 1825.6 979.85"/>
		<polygon  points="1908.2 1083.6 1898.3 1129.2 1799.1 1105.8 1808.2 1062.6"/>
		<polygon  points="1916.8 1043.6 1908.2 1083.6 1808.2 1062.6 1817 1020.6"/>
		<path transform="translate(-2.27 14.61)" d="m1810.5 1047.9l-9.12 43.29-32.07-1.58-40-2-13.24-0.64-22.68-106.57a45.69 45.69 0 0 0 24.38 -16.39z"/>
		<path transform="translate(-2.27 14.61)" d="m1642.7 960.34l-94 71.46-15-68.27c22.65-12.18 43.48-25.32 61.95-37.56 29.76-18.81 39.64-1.22 39.92 10.33a47.77 47.77 0 0 0 7.08 24"/>
		<path transform="translate(-2.27 14.61)" d="m1663.6 978.46l-43.49 103.91-17.44-0.85-31.53-1.55-1.74-1.26-12.33-8.87-8.35-38 94-71.46a45.8 45.8 0 0 0 20.93 18.12"/>
		<path transform="translate(-2.27 14.61)" d="m1830.4 953.31l-2.52 11.93-8.59 40.78-8.82 41.93-92.74-83.86a45.38 45.38 0 0 0 9.09 -22.4l103.59 11.63z"/>
		<path transform="translate(-2.27 14.61)" d="m1841.2 901.93l-10.81 51.38-103.61-11.63a45.29 45.29 0 0 0 0.32 -5.37c0-19.79-29.7-54.42 47.92-45.9a581.28 581.28 0 0 1 66.18 11.52"/>
		<path transform="translate(-2.27 14.61)" d="m1716 1087l-26.52-1.31-44.13-2.16-25.23-1.23 43.48-103.9a45 45 0 0 0 17.75 3.6 45.63 45.63 0 0 0 12 -1.59z"/>
		<path transform="translate(-2.27 14.61)" d="M1988.54,786.67l-24.39,108.86a137.12,137.12,0,0,1-18.83-5.83c-15.19-6-29.82-11.34-44.15-16l27-106.29Z"/>
		<path transform="translate(-2.27 14.61)" d="M1778.84,766.41l.38,80.7-1.74-.14c-37.77-1.36-71.77.48-102.33,5.57a282.83,282.83,0,0,1-18.06-78.36Z"/>
		<path transform="translate(-2.27 14.61)" d="m1778.8 766.41l-0.15-32.7 86.42 15.54-26.19 107.57c-19.33-4.14-39-7.3-59.7-9.72z"/>
		<path transform="translate(-2.27 14.61)" d="m1778.7 733.71l0.15 32.7-121.75 7.77c-2.34-26.43-1.5-54.49 2.54-84.4l119 25.56z"/>
		<path transform="translate(-2.27 14.61)" d="m1928.2 767.38l-27 106.29a601.26 601.26 0 0 0 -62.26 -16.85l26.19-107.57 60.69 17.37z"/>
		<path transform="translate(-2.27 14.61)" d="M1883.39,456.88l10.52,52.23-3.23,50.22-15.4,33.1-97.53-51.75a45,45,0,0,0,5.22-18.34,45.76,45.76,0,0,0-4.36-22.7Z"/>
		<path transform="translate(-2.27 14.61)" d="m1796.3 314.76l87.06 142.13-104.79 42.76a45.87 45.87 0 0 0 -29.88 -24.58z"/>
		<path transform="translate(-2.27 14.61)" d="m1875.3 592.44l-17 36.54-79.07 52.64-37.08-116.76a46 46 0 0 0 35.61 -24.17z"/>
		<path transform="translate(-2.27 14.61)" d="m1636.2 311.28l-43.49 163.8q-24.16-14.78-55.81-25.31l35.16-139.89z"/>
		<path transform="translate(-2.27 14.61)" d="M1636.2,311.28l71.47,173.25a45.76,45.76,0,0,0-12.9,18,36.7,36.7,0,0,1-20,20.17l-24.26,10.17q-19.26-34.22-57.78-57.78Z"/>
		<path id="lt-7" transform="translate(-2.27 14.61)" d="m1796.3 314.76l-47.61 160.31a45.76 45.76 0 0 0 -41 9.46l-71.52-173.25z"/>
		<path transform="translate(-2.27 14.61)" d="M1742.13,564.85l37.08,116.76-115.83-15.45q11.36-51.7,2.48-92.58l26.91-11.27a36.15,36.15,0,0,1,27.47-.51,45.51,45.51,0,0,0,19.23,3.26c.9,0,1.79-.1,2.67-.21"/>
		<path transform="translate(-2.27 14.61)" d="M1500,308.32l-10.19,131.19q-5.85-.61-11.78-.9l-39.9-2,7.57-129.45Z"/>
		<path transform="translate(-2.27 14.61)" d="M1572.06,309.88,1536.9,449.77c-1.79-.6-3.6-1.18-5.43-1.76a212.38,212.38,0,0,0-41.61-8.51L1500,308.32Z"/>
		<polygon  points="1443.5 321.77 1435.9 451.22 1383.6 448.59 1390.2 320.61"/>
		<polygon  points="1336.6 319.44 1331.6 445.98 1267 442.74 1271 318.02"/>
		<polygon  points="1390.2 320.61 1383.6 448.59 1331.6 445.98 1336.6 319.44"/>
		<path transform="translate(-2.27 14.61)" d="M1620.83,657.15l-.15.77q-4.61,25-6.63,48.87l-110.54-14.4,10.38-62.28Z"/>
		<path transform="translate(-2.27 14.61)" d="M1608.5,547.66c18.67,27.93,22.42,63.83,12.33,109.49l-106.94-27,.39-22.29,94.2-60.14Z"/>
		<path transform="translate(-2.27 14.61)" d="M1617.5,805.68a321.19,321.19,0,0,0,14.91,56.79,253.85,253.85,0,0,0-59.88,26.7l-.57.36c-12.54,8.33-26.25,17.1-40.86,25.64l-26.9-92.9Z"/>
		<polygon  points="1449.7 495.47 1443 606.11 1390.4 603.27 1397.4 492.84"/>
		<polygon  points="1290.6 487.49 1286.3 598.59 1286.3 598.61 1234.4 596.73 1237.9 485.12 1243.2 485.1"/>
		<path transform="translate(-2.27 14.61)" d="m1617.5 805.68l-113.3 16.59-3-10.34 1-54.46 110.4-1.2a363.49 363.49 0 0 0 4.83 49.41"/>
		<path transform="translate(-2.27 14.61)" d="m1503.5 692.38 110.49 14.4a421.49 421.49 0 0 0 -1.38 49.48l-110.4 1.2z"/>
		<path transform="translate(-2.27 14.61)" d="m1608.5 547.66l-94.2 60.14-23.09-13.8 27.21-104.44c43.17 13.57 72.92 32.49 90.08 58.14"/>
		<path transform="translate(-2.27 14.61)" d="m1518.4 489.52-27.21 104.48l-45.91-2.47 6.7-110.68 24 1.2a170.59 170.59 0 0 1 42.51 7.47"/>
		<polygon  points="1237.9 485.12 1234.4 596.73 1181.7 594.84 1181.8 593.49 1184.1 485.31"/>
		<polygon  points="1397.4 492.84 1390.4 603.27 1338.2 600.47 1343.2 490.13"/>
		<polygon  points="1343.2 490.13 1338.2 600.47 1286.3 598.61 1286.3 598.59 1290.6 487.49"/>
		<path transform="translate(-2.27 14.61)" d="m692 474.58l21.19 107.48-31.12 16.53-75.3-91.74c22.13-15.66 50.43-26.31 85.23-32.27"/>
		<polygon  points="1184.1 485.31 1181.8 593.49 1181.7 594.84 1125.3 592.82 1128 485.52"/>
		<polygon  points="859.74 486.48 862.03 594.47 809.38 594.8 806.29 486.68"/>
		<path transform="translate(-2.27 14.61)" d="M755.91,472.24l3.4,108.27-46.14,1.55L692,474.58c4.68-.81,9.47-1.53,14.39-2.16Z"/>
		<polygon  points="806.29 486.68 809.38 594.8 757.05 595.13 753.64 486.86"/>
		<polygon  points="1071 485.72 1069.9 592.82 1069.9 593.16 1017.6 593.49 1017.6 485.91"/>
		<polygon  points="1128 485.52 1125.3 592.82 1069.9 593.16 1069.9 592.82 1071 485.72"/>
		<polygon  points="1017.6 485.91 1017.6 593.49 965.38 593.82 965.38 592.82 965.38 486.09"/>
		<polygon  points="965.38 592.82 965.38 593.82 913.92 594.14 913.9 592.82 911.97 486.29 965.38 486.09"/>
		<path transform="translate(-2.27 14.61)" d="M606.75,506.85l75.3,91.74-19.23,26.13L554,582.58c9.54-32.4,27-57.48,52.8-75.74"/>
		<polygon  points="913.9 592.82 913.92 594.14 862.03 594.47 859.74 486.48 911.97 486.29"/>
		<polygon  points="1227.5 318.02 1223.5 441.68 1159.5 441.9 1161.4 316.74 1227.4 318.02"/>
		<polygon  points="1161.4 316.74 1159.5 441.9 1107.6 442.1 1108.8 315.72"/>
		<path transform="translate(-2.27 14.61)" d="M593.24,290.41l50.22,151.28a238.37,238.37,0,0,0-42,17.73L494.84,288.18Z"/>
		<polygon  points="1002.3 313.65 1002.3 442.47 950.01 442.67 950.01 442.65 948.48 312.62 948.48 312.6"/>
		<polygon  points="788.95 309.51 793.56 443.22 740.91 443.42 740.91 443.4 735.52 308.31 735.52 308.3"/>
		<polygon  points="1108.8 315.72 1107.6 442.1 1055.3 442.28 1055.7 314.69"/>
		<polygon  points="1055.7 314.69 1055.3 442.28 1002.3 442.47 1002.3 313.65"/>
		<polygon  points="950.01 442.65 950.01 442.67 897.73 442.85 895.44 311.58 948.48 312.6 948.48 312.62"/>
		<path transform="translate(-2.27 14.61)" d="M743.18,428.79v0l-38.31.14h-1.32l-1.31.17q-6.16.77-12.15,1.72L677.43,292.32l60.36,1.36v0Z"/>
		<path transform="translate(-2.27 14.61)" d="M677.43,292.32l12.66,138.51a314.26,314.26,0,0,0-46.64,10.86L593.24,290.41Z"/>
		<path transform="translate(-2.27 14.61)" d="M494.84,288.18,601.46,459.42a188.87,188.87,0,0,0-38.05,27.1L401.82,332.58V286.06Z"/>
		<polygon  points="895.44 311.58 897.73 442.85 845.07 443.04 845.07 443.03 842.37 310.55"/>
		<polygon  points="845.07 443.03 845.07 443.04 793.56 443.22 788.95 309.51 842.37 310.55"/>
		<path transform="translate(-2.27 14.61)" d="M401.82,332.58,563.4,486.52c-1.28,1.17-2.52,2.35-3.75,3.55a174.43,174.43,0,0,0-26.84,33.81L354.53,414.45Z"/>
		<path transform="translate(-2.27 14.61)" d="m1312.9 1123.5l6.63 31.53-120.79 47.63a274 274 0 0 1 -15.95 -65l128.2-23.19z"/>
		<path transform="translate(-2.27 14.61)" d="m1321.3 1163.4l8 38.12-101 54.95a227.91 227.91 0 0 1 -29.58 -53.85l120.8-47.62z"/>
		<path transform="translate(-2.27 14.61)" d="m1304.7 1084.4l6.34 30.09-128.21 23.19a414.29 414.29 0 0 1 -2.47 -68.23l122.33 5.39z"/>
		<path transform="translate(-2.27 14.61)" d="m1302.6 1074.8l-122.33-5.38q1-25.07 4.48-52.79l6.85-25.14c34.46 9.95 66.94 16.7 97.69 20.27z"/>
		<path transform="translate(-2.27 14.61)" d="M1343.7,1222.66l12.6,18.54-92,61.58q-8-11.43-16.62-23.05l-.75-1-.86-.92a241.35,241.35,0,0,1-17.76-21.32l101-54.94Z"/>
		<polygon  points="1433.5 1393 1333.6 1394.7 1414.3 1352.6"/>
		<path transform="translate(-2.27 14.61)" d="m1388.4 1288.4l-96.27 56.07q-13-20.56-27.84-41.73l92-61.58 23.42 34.44z"/>
		<path transform="translate(-2.27 14.61)" d="m1416.6 1338l-102.24 42.58c-0.93-1.71-13.79-22.72-22.19-36.05l96.27-56.07 15.22 22.41z"/>
		<path transform="translate(-2.27 14.61)" d="m1254.3 1366l-24.44 14.54-106.8 1.27-0.27-8.09 97.74-57.48q18.34 25.38 33.77 49.76"/>
		<path transform="translate(-2.27 14.61)" d="M1263,1380.06l-33.17.5,24.44-14.54c3.72,5.85,5.28,8.28,8.73,14"/>
		<path transform="translate(-2.27 14.61)" d="m1220.5 1316.3l-97.74 57.48-34.29-37.95 98.29-62.75a280.16 280.16 0 0 0 26.66 33.5q3.6 4.88 7.08 9.72"/>
		<path transform="translate(-2.27 14.61)" d="m1186.8 1273l-98.3 62.75-24-61.76 98.32-44.52a269.53 269.53 0 0 0 23.94 43.53"/>
		<path transform="translate(-2.27 14.61)" d="m1150.4 977.53l-8.34 30.6-0.18 1.5q-1.71 13.5-2.9 26.37l-112.32-14.61 13.74-71.79a530.94 530.94 0 0 1 110 27.93"/>
		<path transform="translate(-2.27 14.61)" d="m1146.9 1182.3l-106.56 30.53-12.24-27.43-2.08-35.16 112.57-16.16q1.78 17.21 5 33.24 1.51 7.6 3.35 15"/>
		<path transform="translate(-2.27 14.61)" d="M1026.63,1021.39,1139,1036q-2.34,25.7-2.52,49.13l-114.22.45-1.86-31.38,6.27-32.81Z"/>
		<path transform="translate(-2.27 14.61)" d="m1138.6 1134.1-112.62 16.16l-3.82-64.65 114.22-0.45a445.82 445.82 0 0 0 2.19 48.94"/>
		<path transform="translate(-2.27 14.61)" d="m1162.8 1229.5l-98.34 44.48-0.69-1.79-23.43-59.43 106.56-30.53a293.93 293.93 0 0 0 15.89 47.22"/>
		<path transform="translate(-2.27 14.61)" d="m1312.9 1123.5l6.63 31.53-120.79 47.63a274 274 0 0 1 -15.95 -65l128.2-23.19z"/>
		<path transform="translate(-2.27 14.61)" d="m1321.3 1163.4l8 38.12-101 54.95a227.91 227.91 0 0 1 -29.58 -53.85l120.8-47.62z"/>
		<path transform="translate(-2.27 14.61)" d="m1304.7 1084.4l6.34 30.09-128.21 23.19a414.29 414.29 0 0 1 -2.47 -68.23l122.33 5.39z"/>
		<path transform="translate(-2.27 14.61)" d="m1302.6 1074.8l-122.33-5.38q1-25.07 4.48-52.79l6.85-25.14c34.46 9.95 66.94 16.7 97.69 20.27z"/>
		<path transform="translate(-2.27 14.61)" d="M1343.7,1222.66l12.6,18.54-92,61.58q-8-11.43-16.62-23.05l-.75-1-.86-.92a241.35,241.35,0,0,1-17.76-21.32l101-54.94Z"/>
		<polygon points="1433.5 1393 1333.6 1394.7 1414.3 1352.6"/>
		<path transform="translate(-2.27 14.61)" d="m1388.4 1288.4l-96.27 56.07q-13-20.56-27.84-41.73l92-61.58 23.42 34.44z"/>
		<path transform="translate(-2.27 14.61)" d="M1416.57,1338l-79.46,41.43-23.71.65c-1-1.86-6.2-10.7-7.25-12.56-7.17-12.86-5.7-9.8-14-23l96.27-56.07,15.22,22.41Z"/>
		<path transform="translate(-2.27 14.61)" d="m1254.3 1366l-24.44 14.54-106.8 1.27-0.27-8.09 97.74-57.48q18.34 25.38 33.77 49.76"/>
		<path transform="translate(-2.27 14.61)" d="M1263,1380.06l-33.17.5,24.44-14.54c3.6,5.67,5.37,8.44,8.73,14"/>
		<path transform="translate(-2.27 14.61)" d="m1220.5 1316.3l-97.74 57.48-34.29-37.95 98.29-62.75a280.16 280.16 0 0 0 26.66 33.5q3.6 4.88 7.08 9.72"/>
		<path transform="translate(-2.27 14.61)" d="m1186.8 1273l-98.3 62.75-24-61.76 98.32-44.52a269.53 269.53 0 0 0 23.94 43.53"/>
		<path transform="translate(-2.27 14.61)" d="m1150.4 977.53l-8.34 30.6-0.18 1.5q-1.71 13.5-2.9 26.37l-112.32-14.61 13.74-71.79a530.94 530.94 0 0 1 110 27.93"/>
		<path transform="translate(-2.27 14.61)" d="m1146.9 1182.3l-106.56 30.53-12.24-27.43-2.08-35.16 112.57-16.16q1.78 17.21 5 33.24 1.51 7.6 3.35 15"/>
		<path transform="translate(-2.27 14.61)" d="M1026.63,1021.39,1139,1036q-2.34,25.7-2.52,49.13l-114.22.45-1.86-31.38,6.27-32.81Z"/>
		<path transform="translate(-2.27 14.61)" d="m1138.6 1134.1-112.62 16.16l-3.82-64.65 114.22-0.45a445.82 445.82 0 0 0 2.19 48.94"/>
		<path transform="translate(-2.27 14.61)" d="m1162.8 1229.5l-98.34 44.48-0.69-1.79-23.43-59.43 106.56-30.53a293.93 293.93 0 0 0 15.89 47.22"/>
		<path transform="translate(-2.27 14.61)" d="M2208.66,368l-68.49,103.5a45.76,45.76,0,0,0-39.31-27.31l4.4-107.3,39.65,1.28Z"/>
		<path transform="translate(-2.27 14.61)" d="m2171.2 822.13l2 83.19q-30.89 2.14-64.11 1.93l-2.77-100 64.29-8.73z"/>
		<path transform="translate(-2.27 14.61)" d="M2439.51,684.27l-.06,77.76-107.07-.58c.07-2.16.14-4.37.21-6.62a230.41,230.41,0,0,0-4.45-52.77Z"/>
		<path transform="translate(-2.27 14.61)" d="m2439.2 1030.9l-0.12 132.54h-64.14l-68.67-113.34a45.62 45.62 0 0 0 22.08 -34.1z"/>
		<path transform="translate(-2.27 14.61)" d="m2270.1 664.65l-95.83 39.23-52.36-27.57 86.57-82.45c23.34 24.29 48.55 51.27 54.42 57.55a136.34 136.34 0 0 1 7.23 13.24"/>
		<path transform="translate(-2.27 14.61)" d="M2171.9,822.12l115-1.59c-.75,24.93-1.09,44.73-.74,72.4l-10.92.09A112.44,112.44,0,0,0,2255,895a684.5,684.5,0,0,1-81.84,10.36l-2-83.19Z"/>
		<path transform="translate(-2.27 14.61)" d="M2276.21,946.51c2.94,8.24-4.52,18.39-14.64,23.75a45.75,45.75,0,0,0-24.33,43.12,46.44,46.44,0,0,0,.78,6.18l-110.73,27.21-5-93.47,0-.42c47.27-1.74,94-7.75,140.42-13.24,9.57-1.14,10.59-1.38,13.55,6.87"/>
		<path transform="translate(-2.27 14.61)" d="m2208.4 593.85l-86.57 82.46-60.48-31.83 100.13-95.56a117.78 117.78 0 0 1 11.79 9.46c8.1 7.62 21.28 21.08 35.13 35.47"/>
		<path transform="translate(-2.27 14.61)" d="m2046.1 796.44l1.64 0.3-11.93 107.53q-16.36-1.19-33.3-2.86c-12.64-1.24-25.77-2.86-38.4-5.9l24.39-108.85z"/>
		<path transform="translate(-2.27 14.61)" d="m2106.3 807.24l2.77 100q-35.19-0.18-73.24-3l11.93-107.54z"/>
		<path transform="translate(-2.27 14.61)" d="M2439.45,762l-.06,63.87-109.09-.33c.27-9.81.63-20.35,1-32.51.33-9.45.68-19.85,1.05-31.62Z"/>
		<path transform="translate(-2.27 14.61)" d="M2175.24,756.84l113.74.24c-.41,13-.78,24.32-1.12,34.51-.36,10.67-.69,20.13-.95,28.93l-115,1.59-.72,0-.57-23.62Z"/>
		<path transform="translate(-2.27 14.61)" d="M2105.25,336.91l-4.4,107.3a46.82,46.82,0,0,0-6.32.08,45.67,45.67,0,0,0-30,14.8l-84.7-73.59,68.92-50.4Z"/>
		<path transform="translate(-2.27 14.61)" d="m1979.8 385.5l84.7 73.59a45.59 45.59 0 0 0 -11.49 37.45l-112.82 19.6v-73z"/>
		<path transform="translate(-2.27 14.61)" d="m2161.5 548.91l-100.12 95.57-61-32.1 84-78.9a46 46 0 0 0 23.84 1.08 57.94 57.94 0 0 1 44.07 8.07c3.27 2.13 6.38 4.23 9.24 6.28"/>
		<path transform="translate(-2.27 14.61)" d="M2270.06,664.65a193,193,0,0,1,19.05,88.82c0,1.22-.07,2.43-.12,3.62l-113.75-.24-1-53L2270,664.65Z"/>
		<path transform="translate(-2.27 14.61)" d="M2424.57,591.61l-114.18,56.51a163.79,163.79,0,0,0-12.54-22.62l-.89-1.26-1-1.12c-.92-1-8.56-9.18-19.3-20.59l82.48-78.69Z"/>
		<path transform="translate(-2.27 14.61)" d="m2084.3 533.47l-84 78.9-2-1.08-38.07-39.09-20.05-56.06 112.78-19.6a45.78 45.78 0 0 0 31.34 36.93"/>
		<path transform="translate(-2.27 14.61)" d="m2314.6 477.73l-82.71 77.81c-11.31-11.7-21.72-22.21-28.79-28.86a162 162 0 0 0 -16.51 -13.28l77.83-87.66z"/>
		<path transform="translate(-2.27 14.61)" d="m2264.7 1052.7l-42.27 102.57-39.51-17.8-54.52-69.44-1.14-21.22 110.71-27.21a46.06 46.06 0 0 0 26.7 33.1"/>
		<path transform="translate(-2.27 14.61)" d="M2439.39,825.9l-.06,64.74-109.67,0c-.3-24.55,0-42.93.63-65.05Z"/>
		<path transform="translate(-2.27 14.61)" d="m2439.3 890.64l-0.06 64.44h-111.07c2.71-17.91 1.8-40.77 1.53-59.26 0-1.78 0-3.53-0.06-5.24z"/>
		<path transform="translate(-2.27 14.61)" d="m2306.3 1050.1l68.67 113.34h-134.39l-18.09-8.16 42.27-102.57a44.55 44.55 0 0 0 15.19 3.7 45.51 45.51 0 0 0 26.34 -6.32"/>
		<path transform="translate(-2.27 14.61)" d="M2424.57,591.61l15,15.56-.08,77.1-111.37,17.79a236.42,236.42,0,0,0-17.75-53.94Z"/>
		<path transform="translate(-2.27 14.61)" d="m2359.1 523.83l-82.49 78.69c-12.62-13.43-29.51-31.26-44.75-47l82.71-77.81z"/>
		<path transform="translate(-2.27 14.61)" d="M2439.27,955.08l-.08,75.78L2328.36,1016h0a43,43,0,0,0,.32-5.23c0-5.07-1.41-9.8-2.36-14.51-2.32-11.46-1.92-22,.92-35.58.38-1.77.7-3.61,1-5.52Z"/>
		<path transform="translate(-2.27 14.61)" d="M2264.42,425.76l-77.84,87.66c-7.14-5.11-15.06-10.23-23.05-15.09a59,59,0,0,1-23.35-26.81L2208.66,368Z"/>
		<polygon points="2054 1109.9 2045.8 1149.5 1943 1128.3 1951.6 1088.5"/>
		<path transform="translate(-2.27 14.61)" d="m2027.1 1235.7l-54.57 59.09-67.47-78.89a81.3 81.3 0 0 0 21 -26z"/>
		<polygon points="2070.3 1031.7 2062.2 1070.6 1959.9 1050 1968.7 1009.4"/>
		<polygon points="2062.2 1070.6 2054 1109.9 1951.6 1088.5 1959.9 1050"/>
		<path transform="translate(-2.27 14.61)" d="m2039.9 1174.3l-12.74 61.35-101.05-45.75c6.18-11.9 9.6-24.85 11.28-37.47z"/>
		<path transform="translate(-2.27 14.61)" d="M2085.77,953.29v0l-13.23,63.75-101.61-22.3,11.18-51.87c5.46.71,10.93.83,16.18,1.83a507,507,0,0,0,87.48,8.58"/>
		<path transform="translate(-2.27 14.61)" d="m2048.1 1134.9l-8.21 39.47-102.49-21.87q0.32-2.23 0.54-4.46l7.4-34.3z"/>
		<path transform="translate(-2.27 14.61)" d="M1876.19,1231.26l38.31,97.19-44.71,16.08-21.54-1.26L1846,1237a130.1,130.1,0,0,0,30.17-5.72"/>
		<polygon points="1764.8 1248.9 1759.6 1352.8 1759.6 1352.8 1718.3 1350.4 1723.8 1246.7"/>
		<polygon points="1804.2 1251 1799 1355.2 1759.6 1352.8 1759.6 1352.8 1764.8 1248.9"/>
		<path transform="translate(-2.27 14.61)" d="m1905.1 1215.9l67.47 78.89-33 23.8-25.05 9.87-38.31-97.19a88.56 88.56 0 0 0 28.9 -15.37"/>
		<path transform="translate(-2.27 14.61)" d="M1846,1237l2.22,106.29-47-2.73,5.28-104.15,12.3.66c4.65.29,9.12.44,13.44.44,4.8,0,9.39-.18,13.77-.51"/>
		<polygon points="1767 1104.3 1762.2 1205.2 1722.3 1203.1 1727 1102.3"/>
		<path transform="translate(-2.27 14.61)" d="m1801.4 1091.2l22.53 102.52-2.44-0.13-57-3 4.86-100.93z"/>
		<path transform="translate(-2.27 14.61)" d="m1900.6 1114.5l-5.49 25.5-0.27 1.26-0.14 1.28c-2.68 28.36-13.17 54.1-70.83 51.18l-22.53-102.53z"/>
		<path transform="translate(-2.27 14.61)" d="m1939.6 933.79l-11.64 54-100-22.61 2.52-11.92 10.81-51.37c28.68 6.77 57.08 15.92 88.08 28.2 3.41 1.35 6.83 2.55 10.25 3.66"/>
		<polygon points="1925.6 1002.4 1916.8 1043.6 1817 1020.6 1825.6 979.85"/>
		<polygon points="1908.2 1083.6 1898.3 1129.2 1799.1 1105.8 1808.2 1062.6"/>
		<polygon points="1916.8 1043.6 1908.2 1083.6 1808.2 1062.6 1817 1020.6"/>
		<path transform="translate(-2.27 14.61)" d="m1810.5 1047.9l-9.12 43.29-32.07-1.58-40-2-13.24-0.64-22.68-106.57a45.69 45.69 0 0 0 24.38 -16.39z"/>
		<path transform="translate(-2.27 14.61)" d="m1642.7 960.34l-94 71.46-15-68.27c22.65-12.18 43.48-25.32 61.95-37.56 29.76-18.81 39.64-1.22 39.92 10.33a47.77 47.77 0 0 0 7.08 24"/>
		<path transform="translate(-2.27 14.61)" d="m1663.6 978.46l-43.49 103.91-17.44-0.85-31.53-1.55-1.74-1.26-12.33-8.87-8.35-38 94-71.46a45.8 45.8 0 0 0 20.93 18.12"/>
		<path transform="translate(-2.27 14.61)" d="m1830.4 953.31l-2.52 11.93-8.59 40.78-8.82 41.93-92.74-83.86a45.38 45.38 0 0 0 9.09 -22.4l103.59 11.63z"/>
		<path transform="translate(-2.27 14.61)" d="m1841.2 901.93l-10.81 51.38-103.61-11.63a45.29 45.29 0 0 0 0.32 -5.37c0-19.79-29.7-54.42 47.92-45.9a581.28 581.28 0 0 1 66.18 11.52"/>
		<path transform="translate(-2.27 14.61)" d="m1716 1087l-26.52-1.31-44.13-2.16-25.23-1.23 43.48-103.9a45 45 0 0 0 17.75 3.6 45.63 45.63 0 0 0 12 -1.59z"/>
		<path transform="translate(-2.27 14.61)" d="M1988.54,786.67l-24.39,108.86a137.12,137.12,0,0,1-18.83-5.83c-15.19-6-29.82-11.34-44.15-16l27-106.29Z"/>
		<path transform="translate(-2.27 14.61)" d="M1778.84,766.41l.38,80.7-1.74-.14c-37.77-1.36-71.77.48-102.33,5.57a282.83,282.83,0,0,1-18.06-78.36Z"/>
		<path transform="translate(-2.27 14.61)" d="m1778.8 766.41l-0.15-32.7 86.42 15.54-26.19 107.57c-19.33-4.14-39-7.3-59.7-9.72z"/>
		<path transform="translate(-2.27 14.61)" d="m1778.7 733.71l0.15 32.7-121.75 7.77c-2.34-26.43-1.5-54.49 2.54-84.4l119 25.56z"/>
		<path transform="translate(-2.27 14.61)" d="m1928.2 767.38l-27 106.29a601.26 601.26 0 0 0 -62.26 -16.85l26.19-107.57 60.69 17.37z"/>
		<path transform="translate(-2.27 14.61)" d="M1883.39,456.88l10.52,52.23-3.23,50.22-15.4,33.1-97.53-51.75a45,45,0,0,0,5.22-18.34,45.76,45.76,0,0,0-4.36-22.7Z"/>
		<path transform="translate(-2.27 14.61)" d="m1796.3 314.76l87.06 142.13-104.79 42.76a45.87 45.87 0 0 0 -29.88 -24.58z"/>
		<path transform="translate(-2.27 14.61)" d="m1875.3 592.44l-17 36.54-79.07 52.64-37.08-116.76a46 46 0 0 0 35.61 -24.17z"/>
		<path transform="translate(-2.27 14.61)" d="m1636.2 311.28l-43.49 163.8q-24.16-14.78-55.81-25.31l35.16-139.89z"/>
		<path transform="translate(-2.27 14.61)" d="M1636.2,311.28l71.47,173.25a45.76,45.76,0,0,0-12.9,18,36.7,36.7,0,0,1-20,20.17l-24.26,10.17q-19.26-34.22-57.78-57.78Z"/>
		<path transform="translate(-2.27 14.61)" d="M1742.13,564.85l37.08,116.76-115.83-15.45q11.36-51.7,2.48-92.58l26.91-11.27a36.15,36.15,0,0,1,27.47-.51,45.51,45.51,0,0,0,19.23,3.26c.9,0,1.79-.1,2.67-.21"/>
		<path transform="translate(-2.27 14.61)" d="M1500,308.32l-10.19,131.19q-5.85-.61-11.78-.9l-39.9-2,7.57-129.45Z"/>
		<path transform="translate(-2.27 14.61)" d="M1572.06,309.88,1536.9,449.77c-1.79-.6-3.6-1.18-5.43-1.76a212.38,212.38,0,0,0-41.61-8.51L1500,308.32Z"/>
		<polygon points="1443.5 321.77 1435.9 451.22 1383.6 448.59 1390.2 320.61"/>
		<polygon points="1336.6 319.44 1331.6 445.98 1267 442.74 1271 318.02"/>
		<polygon points="1390.2 320.61 1383.6 448.59 1331.6 445.98 1336.6 319.44"/>
		<path transform="translate(-2.27 14.61)" d="M1620.83,657.15l-.15.77q-4.61,25-6.63,48.87l-110.54-14.4,10.38-62.28Z"/>
		<path transform="translate(-2.27 14.61)" d="M1608.5,547.66c18.67,27.93,22.42,63.83,12.33,109.49l-106.94-27,.39-22.29,94.2-60.14Z"/>
		<path transform="translate(-2.27 14.61)" d="M1617.5,805.68a321.19,321.19,0,0,0,14.91,56.79,253.85,253.85,0,0,0-59.88,26.7l-.57.36c-12.54,8.33-26.25,17.1-40.86,25.64l-26.9-92.9Z"/>
		<polygon points="1449.7 495.47 1443 606.11 1390.4 603.27 1397.4 492.84"/>
		<polygon points="1290.6 487.49 1286.3 598.59 1286.3 598.61 1234.4 596.73 1237.9 485.12 1243.2 485.1"/>
		<path transform="translate(-2.27 14.61)" d="m1617.5 805.68l-113.3 16.59-3-10.34 1-54.46 110.4-1.2a363.49 363.49 0 0 0 4.83 49.41"/>
		<path transform="translate(-2.27 14.61)" d="m1503.5 692.38 110.49 14.4a421.49 421.49 0 0 0 -1.38 49.48l-110.4 1.2z"/>
		<path transform="translate(-2.27 14.61)" d="m1608.5 547.66l-94.2 60.14-23.09-13.8 27.21-104.44c43.17 13.57 72.92 32.49 90.08 58.14"/>
		<path transform="translate(-2.27 14.61)" d="m1518.4 489.52-27.21 104.48l-45.91-2.47 6.7-110.68 24 1.2a170.59 170.59 0 0 1 42.51 7.47"/>
		<polygon points="1237.9 485.12 1234.4 596.73 1181.7 594.84 1181.8 593.49 1184.1 485.31"/>
		<polygon points="1397.4 492.84 1390.4 603.27 1338.2 600.47 1343.2 490.13"/>
		<polygon points="1343.2 490.13 1338.2 600.47 1286.3 598.61 1286.3 598.59 1290.6 487.49"/>
		<path transform="translate(-2.27 14.61)" d="m692 474.58l21.19 107.48-31.12 16.53-75.3-91.74c22.13-15.66 50.43-26.31 85.23-32.27"/>
		<polygon points="1184.1 485.31 1181.8 593.49 1181.7 594.84 1125.3 592.82 1128 485.52"/>
		<polygon points="859.74 486.48 862.03 594.47 809.38 594.8 806.29 486.68"/>
		<path transform="translate(-2.27 14.61)" d="M755.91,472.24l3.4,108.27-46.14,1.55L692,474.58c4.68-.81,9.47-1.53,14.39-2.16Z"/>
		<polygon points="806.29 486.68 809.38 594.8 757.05 595.13 753.64 486.86"/>
		<polygon points="1071 485.72 1069.9 592.82 1069.9 593.16 1017.6 593.49 1017.6 485.91"/>
		<polygon points="1128 485.52 1125.3 592.82 1069.9 593.16 1069.9 592.82 1071 485.72"/>
		<polygon points="1017.6 485.91 1017.6 593.49 965.38 593.82 965.38 592.82 965.38 486.09"/>
		<polygon points="965.38 592.82 965.38 593.82 913.92 594.14 913.9 592.82 911.97 486.29 965.38 486.09"/>
		<path transform="translate(-2.27 14.61)" d="M606.75,506.85l75.3,91.74-19.23,26.13L554,582.58c9.54-32.4,27-57.48,52.8-75.74"/>
		<polygon points="913.9 592.82 913.92 594.14 862.03 594.47 859.74 486.48 911.97 486.29"/>
		<polygon points="1227.5 318.02 1223.5 441.68 1159.5 441.9 1161.4 316.74 1227.4 318.02"/>
		<polygon points="1161.4 316.74 1159.5 441.9 1107.6 442.1 1108.8 315.72"/>
		<path transform="translate(-2.27 14.61)" d="M593.24,290.41l50.22,151.28a238.37,238.37,0,0,0-42,17.73L494.84,288.18Z"/>
		<polygon points="1002.3 313.65 1002.3 442.47 950.01 442.67 950.01 442.65 948.48 312.62 948.48 312.6"/>
		<polygon points="788.95 309.51 793.56 443.22 740.91 443.42 740.91 443.4 735.52 308.31 735.52 308.3"/>
		<polygon points="1108.8 315.72 1107.6 442.1 1055.3 442.28 1055.7 314.69"/>
		<polygon points="1055.7 314.69 1055.3 442.28 1002.3 442.47 1002.3 313.65"/>
		<polygon points="950.01 442.65 950.01 442.67 897.73 442.85 895.44 311.58 948.48 312.6 948.48 312.62"/>
		<path transform="translate(-2.27 14.61)" d="M743.18,428.79v0l-38.31.14h-1.32l-1.31.17q-6.16.77-12.15,1.72L677.43,292.32l60.36,1.36v0Z"/>
		<path transform="translate(-2.27 14.61)" d="M677.43,292.32l12.66,138.51a314.26,314.26,0,0,0-46.64,10.86L593.24,290.41Z"/>
		<path transform="translate(-2.27 14.61)" d="M494.84,288.18,601.46,459.42a188.87,188.87,0,0,0-38.05,27.1L401.82,332.58V286.06Z"/>
		<polygon points="895.44 311.58 897.73 442.85 845.07 443.04 845.07 443.03 842.37 310.55"/>
		<polygon points="845.07 443.03 845.07 443.04 793.56 443.22 788.95 309.51 842.37 310.55"/>
		<path transform="translate(-2.27 14.61)" d="M401.82,332.58,563.4,486.52c-1.28,1.17-2.52,2.35-3.75,3.55a174.43,174.43,0,0,0-26.84,33.81L354.53,414.45Z"/>
		<polyline points="349 1055.1 532.14 1055.1 689.85 1071.1 751.11 1077 811 1076.6 1018.1 1068.8 1025.8 1200 1038.1 1227.4 1061.5 1286.9 1086.2 1350.4 1120.5 1388.4 1120.8 1396.8"/>
		<line x1="426.63" x2="426.63" y1="1055.1" y2="941.99"/>
		<line x1="479.51" x2="479.89" y1="1055.1" y2="941.99"/>
		<line x1="532.14" x2="532.01" y1="1055.1" y2="939.59"/>
		<line x1="584.11" x2="583.67" y1="1060.4" y2="947.58"/>
		<line x1="636.69" x2="637.15" y1="1065.7" y2="953.14"/>
		<line x1="689.85" x2="691.06" y1="1071.1" y2="959.2"/>
		<line x1="751.11" x2="750.75" y1="1077" y2="965.99"/>
		<line x1="811" x2="811.64" y1="1076.6" y2="967.05"/>
		<line x1="864.15" x2="863.44" y1="1074.6" y2="962.98"/>
		<line x1="916.66" x2="916.62" y1="1072.6" y2="958.09"/>
		<line x1="966.88" x2="973.37" y1="1070.7" y2="958.25"/>
		<line x1="1018.1" x2="1038.1" y1="1068.8" y2="964.22"/>
		<line x1="1136.7" x2="1024.4" y1="1050.6" y2="1036"/>
		<line x1="1019.9" x2="1134.2" y1="1100.2" y2="1099.8"/>
		<line x1="1023.8" x2="1136.4" y1="1164.8" y2="1148.7"/>
		<line x1="1038.1" x2="1144.6" y1="1227.4" y2="1196.9"/>
		<line x1="1062.2" x2="1160.5" y1="1288.6" y2="1244.1"/>
		<line x1="1086.2" x2="1184.5" y1="1350.4" y2="1287.7"/>
		<line x1="1120.5" x2="1219.8" y1="1388.4" y2="1329.9"/>
		<line x1="1254.1" x2="1227.6" y1="1379.4" y2="1395.2"/>
		<polyline points="1287.1 1026.4 1327.1 1216.2 1401.4 1325.5 1414.3 1352.6 1433.5 1393"/>
		<polyline points="1401.4 1325.5 1492.6 1339.7 1620.5 1345.7 1626 1241.6"/>
		<line x1="1300.4" x2="1178" y1="1089.4" y2="1084"/>
		<line x1="1308.7" x2="1178.7" y1="1129.1" y2="1152.6"/>
		<line x1="1317.3" x2="1194.5" y1="1169.6" y2="1218"/>
		<line x1="1327.1" x2="1226.1" y1="1216.2" y2="1271.1"/>
		<line x1="1354" x2="1259.6" y1="1255.8" y2="1319"/>
		<line x1="1386.1" x2="1289.9" y1="1303.1" y2="1359.1"/>
		<line x1="1414.3" x2="1333.6" y1="1352.6" y2="1394.7"/>
		<line x1="1302.4" x2="1403.5" y1="1099" y2="1078.3"/>
		<line x1="1310.6" x2="1412" y1="1138.1" y2="1116.4"/>
		<line x1="1319" x2="1420.9" y1="1178" y2="1156.8"/>
		<line x1="1341.4" x2="1432" y1="1237.3" y2="1186.6"/>
		<line x1="1377.4" x2="1450.5" y1="1290.3" y2="1210.3"/>
		<line x1="1428.3" x2="1477.4" y1="1329.7" y2="1227.5"/>
		<line x1="1492.6" x2="1507.7" y1="1339.7" y2="1235.1"/>
		<line x1="1539.4" x2="1545.2" y1="1341.9" y2="1237.3"/>
		<line x1="1580.1" x2="1585.3" y1="1343.8" y2="1241.6"/>
		<polyline points="1643.4 1242.5 1637.6 1345.7 1867.5 1359.1 1912.2 1343 1937.3 1333.2 1970.3 1309.4 2024.9 1250.3 2083.5 967.92"/>
		<line x1="1678.8" x2="1684.1" y1="1348.1" y2="1244.6"/>
		<line x1="1718.3" x2="1723.8" y1="1350.4" y2="1246.7"/>
		<line x1="1759.6" x2="1764.7" y1="1352.8" y2="1248.9"/>
		<line x1="1799" x2="1804.2" y1="1355.1" y2="1251"/>
		<line x1="1846" x2="1843.8" y1="1357.9" y2="1251.6"/>
		<line x1="1912.2" x2="1873.9" y1="1343" y2="1245.9"/>
		<line x1="1970.3" x2="1902.8" y1="1309.4" y2="1230.5"/>
		<line x1="2024.9" x2="1923.8" y1="1250.3" y2="1204.6"/>
		<line x1="2037.6" x2="1935.1" y1="1189" y2="1167.1"/>
		<line x1="2045.8" x2="1943" y1="1149.5" y2="1128.3"/>
		<line x1="2054" x2="1951.6" y1="1110" y2="1088.5"/>
		<line x1="2062.2" x2="1959.9" y1="1070.6" y2="1050"/>
		<line x1="2070.3" x2="1968.6" y1="1031.7" y2="1009.4"/>
		<polyline points="1531.5 978.16 1554.8 1084.4 1568.9 1094.6 1799.1 1105.8 1839 916.55"/>
		<line x1="1546.5" x2="1640.4" y1="1046.4" y2="974.95"/>
		<line x1="1617.9" x2="1661.4" y1="1097" y2="993.07"/>
		<line x1="1713.8" x2="1691.1" y1="1101.7" y2="995.09"/>
		<line x1="1808.2" x2="1715.4" y1="1062.6" y2="978.7"/>
		<line x1="1828.1" x2="1724.5" y1="967.92" y2="956.3"/>
		<line x1="1546.5" x2="1445.8" y1="1046.4" y2="1068.2"/>
		<line x1="1554.8" x2="1454.6" y1="1084.4" y2="1107.6"/>
		<line x1="1567.2" x2="1508" y1="1093.3" y2="1191.3"/>
		<line x1="1600.4" x2="1595.4" y1="1096.1" y2="1196.4"/>
		<line x1="1643.1" x2="1639.6" y1="1098.2" y2="1198.7"/>
		<line x1="1687.2" x2="1681.4" y1="1100.4" y2="1200.9"/>
		<line x1="1727" x2="1722.3" y1="1102.3" y2="1203.1"/>
		<line x1="1767" x2="1762.2" y1="1104.3" y2="1205.2"/>
		<line x1="1799.1" x2="1821.6" y1="1105.8" y2="1208.4"/>
		<line x1="1898.3" x2="1799.1" y1="1129.2" y2="1105.8"/>
		<line x1="1908.2" x2="1808.2" y1="1083.6" y2="1062.6"/>
		<line x1="1817" x2="1916.8" y1="1020.6" y2="1043.6"/>
		<line x1="1825.6" x2="1925.6" y1="979.84" y2="1002.5"/>
		<polyline points="2120 967.92 2126.2 1082.6 2180.7 1152 2238.3 1178 2436.8 1178 2437.3 621.79 2206.4 382.63 2142.6 352.8 2046.4 349.72 1977.5 400.12 1937.9 457.72 1937.9 530.75 1958 586.82 1996 625.9 2171.9 718.48 2173 771.46 2168.3 813.12 2104 821.86 2043.9 811.06 1986.3 801.29 1923.5 781.23 1862.8 763.86 1776.3 748.31"/>
		<polyline points="1657.4 704.39 1776.3 729.94 1776.9 861.72"/>
		<line x1="1776.9" x2="1654.8" y1="780.99" y2="788.79"/>
		<line x1="1862.8" x2="1836.6" y1="763.86" y2="871.43"/>
		<line x1="1925.9" x2="1898.9" y1="781.99" y2="888.28"/>
		<line x1="1986.3" x2="1961.9" y1="801.29" y2="910.15"/>
		<line x1="2045.5" x2="2033.6" y1="811.35" y2="918.89"/>
		<line x1="2104" x2="2106.8" y1="821.86" y2="921.88"/>
		<line x1="2168.3" x2="2170.9" y1="813.12" y2="919.95"/>
		<line x1="2284.6" x2="2169.6" y1="835.14" y2="836.73"/>
		<line x1="2173" x2="2288.8" y1="771.46" y2="771.7"/>
		<line x1="2171.9" x2="2267.8" y1="718.48" y2="679.26"/>
		<line x1="2119.6" x2="2206.1" y1="690.92" y2="608.46"/>
		<line x1="2059.1" x2="2159.2" y1="659.09" y2="563.53"/>
		<line x1="1998.1" x2="2082.1" y1="626.98" y2="548.09"/>
		<line x1="1937.9" x2="2050.7" y1="530.76" y2="511.16"/>
		<line x1="1977.5" x2="2062.2" y1="400.12" y2="473.71"/>
		<line x1="2103" x2="2098.6" y1="351.53" y2="458.84"/>
		<line x1="2206.4" x2="2137.9" y1="382.63" y2="486.13"/>
		<line x1="2262.2" x2="2184.3" y1="440.37" y2="528.03"/>
		<line x1="2312.3" x2="2229.6" y1="492.35" y2="570.15"/>
		<line x1="2356.8" x2="2274.4" y1="538.44" y2="617.13"/>
		<line x1="2422.3" x2="2308.1" y1="606.23" y2="662.74"/>
		<line x1="2437.3" x2="2325.9" y1="698.87" y2="716.67"/>
		<line x1="2437.2" x2="2330.1" y1="776.63" y2="776.06"/>
		<line x1="2437.1" x2="2328" y1="840.51" y2="840.18"/>
		<line x1="2437.3" x2="2327.4" y1="905.25" y2="905.24"/>
		<line x1="2437.3" x2="2325.9" y1="969.7" y2="969.74"/>
		<line x1="2436.9" x2="2326.1" y1="1045.5" y2="1030.6"/>
		<line x1="2372.7" x2="2304" y1="1178" y2="1064.7"/>
		<line x1="2220.2" x2="2262.5" y1="1169.9" y2="1067.3"/>
		<line x1="2125" x2="2235.8" y1="1061.4" y2="1034.2"/>
		<polyline points="1661.1 680.78 1776.9 696.23 1856 643.59 1888.4 573.94 1891.6 523.73 1881.1 471.5 1794 329.37 1271 318.01"/>
		<line x1="1776.9" x2="1739.9" y1="696.23" y2="579.46"/>
		<line x1="1873" x2="1775.5" y1="607.05" y2="555.31"/>
		<line x1="1881.1" x2="1776.3" y1="471.5" y2="514.26"/>
		<line x1="1794" x2="1746.4" y1="329.37" y2="489.67"/>
		<line x1="1705.4" x2="1633.9" y1="499.14" y2="325.89"/>
		<line x1="1590.4" x2="1633.9" y1="489.69" y2="325.89"/>
		<line x1="1534.6" x2="1569.8" y1="464.4" y2="324.5"/>
		<line x1="1487.6" x2="1497.8" y1="454.13" y2="322.94"/>
		<line x1="1443.5" x2="1435.9" y1="321.76" y2="451.22"/>
		<line x1="1390.2" x2="1383.6" y1="320.6" y2="448.59"/>
		<line x1="1336.6" x2="1331.6" y1="319.44" y2="445.98"/>
		<polyline points="1227.4 318.01 788.95 309.52 399.55 300.68 399.55 347.19 352.26 429.07 354.19 900.25"/>
		<line x1="353.93" x2="500.97" y1="835.77" y2="835"/>
		<line x1="353.72" x2="500.68" y1="783.88" y2="782.71"/>
		<line x1="353.5" x2="500.39" y1="730.83" y2="730.05"/>
		<line x1="353.29" x2="500.11" y1="678.93" y2="678.93"/>
		<line x1="353.03" x2="501.38" y1="615.51" y2="628.48"/>
		<line x1="352.26" x2="510.52" y1="532.47" y2="583.54"/>
		<line x1="352.26" x2="530.55" y1="429.07" y2="538.51"/>
		<line x1="399.55" x2="561.13" y1="347.19" y2="501.13"/>
		<line x1="492.57" x2="599.19" y1="302.79" y2="474.03"/>
		<line x1="590.97" x2="641.72" y1="305.02" y2="457.9"/>
		<line x1="675.17" x2="687.82" y1="306.94" y2="445.44"/>
		<line x1="735.52" x2="740.9" y1="308.31" y2="443.41"/>
		<line x1="788.95" x2="793.56" y1="309.52" y2="443.22"/>
		<line x1="842.37" x2="845.07" y1="310.55" y2="443.03"/>
		<line x1="895.43" x2="897.73" y1="311.58" y2="442.84"/>
		<line x1="948.48" x2="950.02" y1="312.61" y2="442.66"/>
		<line x1="1002.3" x2="1002.3" y1="313.65" y2="442.47"/>
		<line x1="1055.7" x2="1055.3" y1="314.69" y2="442.28"/>
		<line x1="1108.8" x2="1107.6" y1="315.72" y2="442.09"/>
		<line x1="1161.4" x2="1159.5" y1="316.74" y2="441.9"/>
		<polyline points="1528.8 929.78 1498.9 826.54 1501.2 706.99 1511.6 644.72 1512 622.42 1488.9 608.58 1338.3 600.46 1125.3 592.82 757.04 595.13 710.91 596.67 679.78 613.2 660.56 639.34 655.56 677.78 657.81 911.6"/>
		<line x1="657.07" x2="544.48" y1="834.03" y2="835.57"/>
		<line x1="656.57" x2="544.19" y1="782.15" y2="784.09"/>
		<line x1="656.07" x2="543.9" y1="730.67" y2="732.22"/>
		<line x1="655.56" x2="543.61" y1="677.78" y2="679.58"/>
		<line x1="660.56" x2="551.68" y1="639.34" y2="597.19"/>
		<line x1="679.78" x2="604.49" y1="613.2" y2="521.46"/>
		<line x1="710.91" x2="689.72" y1="596.67" y2="489.19"/>
		<line x1="757.04" x2="753.64" y1="595.13" y2="486.86"/>
		<line x1="809.39" x2="806.29" y1="594.8" y2="486.67"/>
		<line x1="862.03" x2="859.71" y1="594.47" y2="485.1"/>
		<line x1="913.9" x2="911.97" y1="592.82" y2="486.29"/>
		<line x1="965.38" x2="965.38" y1="592.82" y2="485.1"/>
		<line x1="1017.6" x2="1017.6" y1="593.5" y2="485.1"/>
		<line x1="1069.9" x2="1071.1" y1="592.82" y2="483.31"/>
		<line x1="1125.3" x2="1128" y1="592.82" y2="485.52"/>
		<line x1="1181.8" x2="1184.1" y1="593.5" y2="485.32"/>
		<line x1="1234.4" x2="1237.9" y1="596.74" y2="485.12"/>
		<line x1="1286.3" x2="1290.6" y1="598.6" y2="487.48"/>
		<line x1="1338.3" x2="1343.2" y1="600.46" y2="490.12"/>
		<line x1="1390.4" x2="1397.4" y1="603.27" y2="492.84"/>
		<line x1="1443" x2="1449.7" y1="606.11" y2="495.47"/>
		<line x1="1488.9" x2="1516.2" y1="608.58" y2="504.14"/>
		<line x1="1512" x2="1606.2" y1="622.42" y2="562.29"/>
		<line x1="1511.6" x2="1618.6" y1="644.72" y2="671.77"/>
		<line x1="1501.2" x2="1611.8" y1="706.99" y2="721.4"/>
		<line x1="1500" x2="1610.4" y1="772.08" y2="770.89"/>
		<line x1="1501.9" x2="1615.2" y1="836.88" y2="820.29"/>
		<polyline points="848.41 916.55 843.13 803.94 956.37 803.94 1012.7 808.05 1070.8 812.74 1125.3 825.65 1182.8 839.14 1235 856.75 1284.3 870.83 1327.2 876.11 1371.8 872.59 1413.4 861.72 1456.2 842.08 1513.1 934.19"/>
		<line x1="895.35" x2="900.04" y1="803.94" y2="913.07"/>
		<line x1="956.36" x2="952.26" y1="803.94" y2="910.72"/>
		<line x1="1012.7" x2="1002.7" y1="808.05" y2="913.66"/>
		<line x1="1070.8" x2="1053.2" y1="812.74" y2="922.46"/>
		<line x1="1125.3" x2="1104.8" y1="825.65" y2="929.78"/>
		<line x1="1182.8" x2="1154.7" y1="839.14" y2="943.58"/>
		<line x1="1235" x2="1204.5" y1="856.75" y2="958.83"/>
		<line x1="1284.3" x2="1259.7" y1="870.83" y2="975.26"/>
		<line x1="1327.2" x2="1324.2" y1="876.11" y2="984.65"/>
		<line x1="1371.8" x2="1389.9" y1="872.59" y2="978.78"/>
		<line x1="1413.4" x2="1453.9" y1="861.72" y2="962.11"/>
		<line x1="1260.7" x2="1120.8" y1="1394.7" y2="1396.8"/>
		<line x1="1433.5" x2="1312.1" y1="1393" y2="1395.2"/>

		<path transform="translate(-2.27 14.61)" d="M2297.85,625.5l-.89-1.26-1-1.12c-2.78-3-68.21-73.23-92.84-96.42-9.79-9.21-24.57-19.24-39.57-28.37a59,59,0,0,1-23.35-26.8,45.73,45.73,0,1,0-32,63,57.94,57.94,0,0,1,44.07,8.07c8.5,5.55,16,11,21,15.75,21.8,20.51,80.21,83,89.55,93,4.44,7.05,28,47.2,26.28,102.06-.45,14.49-.87,27-1.24,38.13-1.38,40.83-2.16,63.89-1.68,101.34l-10.92.09A112.54,112.54,0,0,0,2255,895c-72.87,13.9-155.46,16-252.49,6.46-19.09-1.89-39.24-4.6-57.22-11.73-58.26-23.07-107.94-35.8-166.11-42.59l-1.74-.14c-37.77-1.36-71.77.48-102.33,5.57-21-53.85-24.87-115-11.76-186.37q11.36-51.7,2.48-92.58l26.91-11.26a36.15,36.15,0,0,1,27.47-.51,45.74,45.74,0,1,0-25.46-59.3,36.7,36.7,0,0,1-20,20.18l-24.25,10.17q-32.38-57.49-119-84.84a214.48,214.48,0,0,0-53.38-9.41L1269.3,428.13l4.08-129-43.47-1.47-4.11,129.45-520.93,1.88h-1.32l-1.31.16c-61.17,7.67-109.14,28.19-142.59,61-34.67,34-54,81.21-57.42,140.34l0,.69,1.41,253.05L349.49,885.7l-10-753.21L296,133l15.59,1235.16,43.5.51L350,929.2l182.31-1.83,153.81,16c69.66,11.89,137.69,12.46,202.2,1.68,99.09-7,185,3.65,262.07,32.46l-8.34,30.6-.18,1.5c-7.77,61.1-7.2,112.66,1.74,157.68,10.84,54.61,33.69,100.18,69.82,139.23q27.68,37.55,49.19,72.92l50.8.6c-18.28-32.39-40.14-65.71-65.71-100.34l-.75-1-.85-.92c-57.27-61.36-76.2-142-61.28-261.18l6.85-25.14c53.88,15.55,103,23.3,148.13,23.3a360.28,360.28,0,0,0,54.27-4l31.46,141.83.51,1.36c15.61,42.63,48.28,65.89,94.5,67.27L1818.81,1237c4.65.29,9.12.43,13.44.43,79.05,0,101.33-47.68,105.65-89.47l44.21-205.12c5.46.71,10.93.83,16.18,1.83,90.15,17.23,177.8,5.17,264.37-5.07,9.57-1.14,10.59-1.38,13.55,6.87s-4.52,18.39-14.64,23.74a45.75,45.75,0,1,0,67.09,40.47c0-5.07-1.41-9.8-2.35-14.51-2.33-11.46-1.92-22,.91-35.58,3.89-18.54,2.8-44.33,2.51-64.79-.56-38.53.21-61.36,1.6-102.79.39-11.19.81-23.7,1.26-38.23,2.35-75.21-33.23-127.15-34.74-129.33M1407.18,964.11l-1.14.23c-63.21,14-137,6.89-225.63-21.77-87.1-35.49-184-48.85-296.23-40.8l-1,.07-1,.16c-60.19,10.18-123.9,9.65-189.34-1.6L547.1,885.18l-1.4-252.91c5.79-95.64,56.86-146.46,160.67-159.84l539.13-1.94,230.41,11.57a170.59,170.59,0,0,1,42.51,7.47c90.2,28.35,121.77,80,102.41,167.62l-.15.77c-14,76.09-10.08,144.78,11.73,204.55a253.86,253.86,0,0,0-59.88,26.7l-.57.36c-44.24,29.34-102.93,64.32-164.78,74.58M1895.12,1140l-.27,1.26-.13,1.28c-2.72,28.76-13.47,54.83-73.28,51l-298.87-15.85-.54,0c-27.76-.78-45.16-12.71-54.68-37.48l-30.6-137.91c61-15,116.32-48.12,159-76.38,29.76-18.81,39.64-1.22,39.92,10.33.58,25.26,20.49,45.75,45.75,45.75a45.75,45.75,0,0,0,45.75-45.75c0-19.79-29.7-54.42,47.92-45.9,53.82,6.35,100,18.24,154.26,39.72,3.41,1.35,6.82,2.55,10.24,3.66Z"/>
		<path class="street" transform="translate(-2.27 14.61)" d="M2297.85,625.5l-.89-1.26-1-1.12c-2.78-3-68.21-73.23-92.84-96.42-9.79-9.21-24.57-19.24-39.57-28.37a59,59,0,0,1-23.35-26.8,45.73,45.73,0,1,0-32,63,57.94,57.94,0,0,1,44.07,8.07c8.5,5.55,16,11,21,15.75,21.8,20.51,80.21,83,89.55,93,4.44,7.05,28,47.2,26.28,102.06-.45,14.49-.87,27-1.24,38.13-1.38,40.83-2.16,63.89-1.68,101.34l-10.92.09A112.54,112.54,0,0,0,2255,895c-72.87,13.9-155.46,16-252.49,6.46-19.09-1.89-39.24-4.6-57.22-11.73-58.26-23.07-107.94-35.8-166.11-42.59l-1.74-.14c-37.77-1.36-71.77.48-102.33,5.57-21-53.85-24.87-115-11.76-186.37q11.36-51.7,2.48-92.58l26.91-11.26a36.15,36.15,0,0,1,27.47-.51,45.74,45.74,0,1,0-25.46-59.3,36.7,36.7,0,0,1-20,20.18l-24.25,10.17q-32.38-57.49-119-84.84a214.48,214.48,0,0,0-53.38-9.41L1269.3,428.13l4.08-129-43.47-1.47-4.11,129.45-520.93,1.88h-1.32l-1.31.16c-61.17,7.67-109.14,28.19-142.59,61-34.67,34-54,81.21-57.42,140.34l0,.69,1.41,253.05L349.49,885.7l-10-753.21L296,133l15.59,1235.16,43.5.51L350,929.2l182.31-1.83,153.81,16c69.66,11.89,137.69,12.46,202.2,1.68,99.09-7,185,3.65,262.07,32.46l-8.34,30.6-.18,1.5c-7.77,61.1-7.2,112.66,1.74,157.68,10.84,54.61,33.69,100.18,69.82,139.23q27.68,37.55,49.19,72.92l50.8.6c-18.28-32.39-40.14-65.71-65.71-100.34l-.75-1-.85-.92c-57.27-61.36-76.2-142-61.28-261.18l6.85-25.14c53.88,15.55,103,23.3,148.13,23.3a360.28,360.28,0,0,0,54.27-4l31.46,141.83.51,1.36c15.61,42.63,48.28,65.89,94.5,67.27L1818.81,1237c4.65.29,9.12.43,13.44.43,79.05,0,101.33-47.68,105.65-89.47l44.21-205.12c5.46.71,10.93.83,16.18,1.83,90.15,17.23,177.8,5.17,264.37-5.07,9.57-1.14,10.59-1.38,13.55,6.87s-4.52,18.39-14.64,23.74a45.75,45.75,0,1,0,67.09,40.47c0-5.07-1.41-9.8-2.35-14.51-2.33-11.46-1.92-22,.91-35.58,3.89-18.54,2.8-44.33,2.51-64.79-.56-38.53.21-61.36,1.6-102.79.39-11.19.81-23.7,1.26-38.23C2334.95,679.62,2299.37,627.67,2297.85,625.5ZM1407.18,964.11l-1.14.23c-63.21,14-137,6.89-225.63-21.77-87.1-35.49-184-48.85-296.23-40.8l-1,.07-1,.16c-60.19,10.18-123.9,9.65-189.34-1.6L547.1,885.18l-1.4-252.91c5.79-95.64,56.86-146.46,160.67-159.84l539.13-1.94,230.41,11.57a170.59,170.59,0,0,1,42.51,7.47c90.2,28.35,121.77,80,102.41,167.62l-.15.77c-14,76.09-10.08,144.78,11.73,204.55a253.86,253.86,0,0,0-59.88,26.7l-.57.36C1527.72,918.87,1469,953.85,1407.18,964.11ZM1895.12,1140l-.27,1.26-.13,1.28c-2.72,28.76-13.47,54.83-73.28,51l-298.87-15.85-.54,0c-27.76-.78-45.16-12.71-54.68-37.48l-30.6-137.91c61-15,116.32-48.12,159-76.38,29.76-18.81,39.64-1.22,39.92,10.33.58,25.26,20.49,45.75,45.75,45.75a45.75,45.75,0,0,0,45.75-45.75c0-19.79-29.7-54.42,47.92-45.9,53.82,6.35,100,18.24,154.26,39.72,3.41,1.35,6.82,2.55,10.24,3.66Z"/>

		<polyline points="313.64 1690.5 313.8 1690.5 313.74 1693.6"/>
	</g>

	<g id="streets-layer">
		<text transform="matrix(-.01 -1 1 -.01 333.83 1055.3)">L</text>
		<text transform="matrix(-.01 -1 1 -.01 333.64 1038.6)">E</text>
		<text transform="translate(333.41 1018.6) rotate(269.34)">V</text>
		<text transform="matrix(-.01 -1 1 -.01 333.18 998.55)">E</text>
		<text transform="matrix(-.01 -1 1 -.01 332.94 978.55)">R</text>
		<text transform="translate(332.69 956.89) rotate(-90.66)"></text>
		<text transform="matrix(-.01 -1 1 -.01 332.6 948.54)">S</text>
		<text transform="translate(332.37 928.52) rotate(-90.66)">T</text>
		<text transform="matrix(-.01 -1 1 -.01 332.15 910.2)">R</text>
		<text transform="translate(331.9 888.53) rotate(-90.66)">E</text>
		<text transform="matrix(-.01 -1 1 -.01 331.67 868.52)">E</text>
		<text transform="matrix(-.01 -1 1 -.01 331.44 848.51)">T</text>
		<text transform="matrix(-.01 -1 1 -.01 331.14 822.38)">N</text>
		<text transform="translate(330.89 800.72) rotate(-90.66)">E</text>
		<text transform="translate(530.94 891.42) rotate(-90.32)">1</text>
		<text transform="translate(530.85 874.74) rotate(-90.32)">2</text>
		<text transform="translate(530.75 858.03) rotate(-90.32)">8</text>
		<text transform="translate(530.66 841.36) rotate(-90.32)">T</text>
		<text transform="translate(530.56 823.03) rotate(-90.32)">H</text>
		<text transform="translate(530.44 801.36) rotate(-90.32)"></text>
		<text transform="translate(530.39 793.02) rotate(-90.32)">C</text>
		<text transform="translate(530.27 771.35) rotate(-90.32)">I</text>
		<text transform="translate(530.23 763.01) rotate(-90.32)">R</text>
		<text transform="translate(530.11 741.36) rotate(-90.32)">C</text>
		<text transform="translate(529.99 719.68) rotate(-90.32)">L</text>
		<text transform="translate(529.89 703) rotate(-90.32)">E</text>
		<text transform="translate(529.74 674.67) rotate(-90.32)">N</text>
		<text transform="translate(529.1 654.19) rotate(-85.89)">E</text>
		<text transform="translate(1572.1 1228.8) rotate(3.04)">1</text>
		<text transform="translate(1588.8 1229.6) rotate(3.04)">2</text>
		<text transform="translate(1605.4 1230.5) rotate(3.04)">7</text>
		<text transform="translate(1622.1 1231.4) rotate(3.04)">T</text>
		<text transform="translate(1640.4 1232.4) rotate(3.04)">H</text>
		<text transform="translate(1670.3 1234) rotate(3.04)">C</text>
		<text transform="matrix(1 .05 -.05 1 1692 1235.1)">I</text>
		<text transform="translate(1700.3 1235.6) rotate(3.04)">R</text>
		<text transform="translate(1721.9 1236.7) rotate(3.04)">C</text>
		<text transform="translate(1743.6 1237.9) rotate(3.04)">L</text>
		<text transform="matrix(1 .05 -.05 1 1760.2 1238.7)">E</text>
		<text transform="matrix(-.12 .99 -.99 -.12 1150.6 1037.9)">Q</text>
		<text transform="translate(1147.8 1061.3) rotate(94.61)">U</text>
		<text transform="translate(1146.2 1083.1) rotate(93.01)">I</text>
		<text transform="matrix(-.03 1 -1 -.03 1145.6 1092)">T</text>
		<text transform="translate(1145.1 1111.3) rotate(89.23)">T</text>
		<text transform="translate(1145.3 1130.2) rotate(86.53)">O</text>
		<text transform="translate(1147.8 1163.6) rotate(82.07)">S</text>
		<text transform="translate(1150.8 1184.7) rotate(78.88)">T</text>
		<text transform="matrix(.26 .97 -.97 .26 1154.6 1204.2)">R</text>
		<text transform="translate(1160.7 1226.8) rotate(71.06)">E</text>
		<text transform="translate(1171.6 1250.2) rotate(55.94)">E</text>
		<text transform="matrix(.58 .82 -.82 .58 1182.8 1266.9)">T</text>
	</g>

</svg>
