<?xml version="1.0" encoding="UTF-8"?>
<svg xmlns="http://www.w3.org/2000/svg" xmlns:xlink="http://www.w3.org/1999/xlink" width="595.28pt" height="841.89pt" viewBox="0 0 595.28 841.89" version="1.1">
    <g id="toilet">
        <path style=" stroke:none;fill-rule:nonzero;fill:rgb(0%,0%,0%);fill-opacity:1;" d="M 223.464844 339.417969 C 222.210938 339.417969 221.195312 340.4375 221.195312 341.6875 L 221.195312 402.890625 C 221.195312 404.140625 222.210938 405.160156 223.464844 405.160156 L 389.535156 405.160156 C 390.789062 405.160156 391.808594 404.140625 391.808594 402.890625 L 391.808594 341.6875 C 391.808594 340.4375 390.789062 339.417969 389.535156 339.417969 Z M 389.535156 405.910156 L 223.464844 405.910156 C 221.796875 405.910156 220.445312 404.554688 220.445312 402.890625 L 220.445312 341.6875 C 220.445312 340.023438 221.796875 338.667969 223.464844 338.667969 L 389.535156 338.667969 C 391.203125 338.667969 392.558594 340.023438 392.558594 341.6875 L 392.558594 402.890625 C 392.558594 404.554688 391.203125 405.910156 389.535156 405.910156 M 280.382812 556.519531 C 285.789062 559.449219 294.519531 562.875 305.582031 562.691406 C 315.867188 562.511719 323.996094 559.238281 329.019531 556.511719 C 356.589844 531.15625 368.503906 496.847656 360.105469 466.96875 C 356.503906 454.144531 349.335938 442.574219 338.796875 432.585938 L 338.679688 432.472656 L 338.679688 418.863281 L 271.152344 418.863281 L 271.152344 431.5625 L 271.058594 431.667969 C 262.59375 441.152344 256.613281 451.765625 253.289062 463.207031 C 239.699219 509.960938 275.972656 551.675781 280.382812 556.519531 M 304.695312 563.449219 C 293.867188 563.449219 285.300781 560.046875 279.96875 557.148438 L 279.875 557.070312 C 275.628906 552.425781 238.820312 510.300781 252.570312 463 C 255.914062 451.488281 261.914062 440.816406 270.402344 431.277344 L 270.402344 418.113281 L 339.429688 418.113281 L 339.429688 432.148438 C 350.003906 442.210938 357.203125 453.855469 360.828125 466.765625 C 369.304688 496.933594 357.296875 531.542969 329.492188 557.09375 L 329.417969 557.148438 C 324.324219 559.917969 316.058594 563.261719 305.59375 563.441406 C 305.292969 563.445312 304.992188 563.449219 304.695312 563.449219 "/>
        <path style="fill:none;stroke-width:0.3;stroke-linecap:butt;stroke-linejoin:miter;stroke:rgb(0%,0%,0%);stroke-opacity:1;stroke-miterlimit:4;" d="M -0.00149375 0.00003125 L -0.00149375 -35.999969 " transform="matrix(1,0,0,-1,220.4429,284.668)"/>
        <path style="fill:none;stroke-width:0.3;stroke-linecap:butt;stroke-linejoin:miter;stroke:rgb(0%,0%,0%);stroke-opacity:1;stroke-miterlimit:4;" d="M -0.00149375 0.00003125 L 35.998506 0.00003125 " transform="matrix(1,0,0,-1,166.4429,338.668)"/>
        <path style="fill:none;stroke-width:0.3;stroke-linecap:butt;stroke-linejoin:miter;stroke:rgb(0%,0%,0%);stroke-opacity:1;stroke-miterlimit:4;" d="M -0.00149375 -0.00001875 L 35.998506 -0.00001875 " transform="matrix(1,0,0,-1,166.4429,563.4492)"/>
        <path style="fill:none;stroke-width:0.3;stroke-linecap:butt;stroke-linejoin:miter;stroke:rgb(0%,0%,0%);stroke-opacity:1;stroke-miterlimit:4;" d="M -0.00149375 -0.00001875 L -0.00149375 35.999981 " transform="matrix(1,0,0,-1,220.4429,617.4492)"/>
        <path style="fill:none;stroke-width:0.3;stroke-linecap:butt;stroke-linejoin:miter;stroke:rgb(0%,0%,0%);stroke-opacity:1;stroke-miterlimit:4;" d="M 0.00099375 0.00003125 L 0.00099375 -35.999969 " transform="matrix(1,0,0,-1,392.5576,284.668)"/>
        <path style="fill:none;stroke-width:0.3;stroke-linecap:butt;stroke-linejoin:miter;stroke:rgb(0%,0%,0%);stroke-opacity:1;stroke-miterlimit:4;" d="M 0.00099375 0.00003125 L -35.999006 0.00003125 " transform="matrix(1,0,0,-1,446.5576,338.668)"/>
        <path style="fill:none;stroke-width:0.3;stroke-linecap:butt;stroke-linejoin:miter;stroke:rgb(0%,0%,0%);stroke-opacity:1;stroke-miterlimit:4;" d="M 0.00099375 -0.00001875 L -35.999006 -0.00001875 " transform="matrix(1,0,0,-1,446.5576,563.4492)"/>
        <path style="fill:none;stroke-width:0.3;stroke-linecap:butt;stroke-linejoin:miter;stroke:rgb(0%,0%,0%);stroke-opacity:1;stroke-miterlimit:4;" d="M 0.00099375 -0.00001875 L 0.00099375 35.999981 " transform="matrix(1,0,0,-1,392.5576,617.4492)"/>
    </g>
</svg>
